<?xml version="1.0" standalone="no"?>
<!DOCTYPE svg PUBLIC "-//W3C//DTD SVG 20010904//EN"
 "http://www.w3.org/TR/2001/REC-SVG-20010904/DTD/svg10.dtd">
<svg version="1.0" xmlns="http://www.w3.org/2000/svg"
 width="512.000000pt" height="512.000000pt" viewBox="0 0 512.000000 512.000000"
 preserveAspectRatio="xMidYMid meet">
<metadata>
Created by potrace 1.14, written by Peter Selinger 2001-2017
</metadata>
<g transform="translate(0.000000,512.000000) scale(0.100000,-0.100000)"
fill="#000000" stroke="none">
<path d="M2470 5113 c-37 -6 -119 -33 -165 -54 -22 -9 -96 -41 -165 -69 -69
-28 -138 -57 -155 -64 -16 -8 -115 -48 -220 -91 -104 -43 -208 -85 -230 -95
-22 -9 -179 -75 -348 -145 -317 -132 -369 -159 -438 -228 -38 -36 -109 -137
-109 -153 0 -3 -6 -20 -14 -37 -58 -128 -600 -1451 -611 -1491 -17 -66 -16
-198 3 -261 12 -41 171 -436 218 -540 7 -16 34 -82 60 -145 25 -63 53 -131 61
-150 35 -80 44 -101 98 -235 31 -77 63 -153 71 -169 8 -16 14 -33 14 -37 0 -5
12 -34 26 -66 14 -32 30 -67 34 -78 4 -11 26 -59 49 -106 48 -102 129 -189
218 -236 32 -17 240 -106 463 -198 223 -92 419 -173 435 -180 17 -8 147 -62
290 -120 143 -59 274 -112 290 -120 74 -32 115 -39 220 -39 99 0 118 4 190 32
88 34 297 121 415 171 41 18 80 34 85 35 11 3 3 0 215 89 255 106 498 207 615
254 154 62 218 98 275 155 77 76 100 117 199 358 51 124 99 239 106 255 67
149 429 1040 440 1079 20 77 13 227 -15 301 -23 61 -210 516 -235 570 -7 17
-28 66 -45 110 -17 44 -38 95 -46 113 -26 61 -42 97 -99 237 -32 77 -68 165
-81 195 -12 30 -42 100 -64 155 -23 55 -55 123 -72 152 -39 70 -125 153 -195
190 -32 17 -240 106 -463 198 -223 92 -418 173 -435 180 -139 61 -620 256
-660 267 -49 14 -176 20 -225 11z m175 -346 c37 -14 761 -312 960 -396 50 -21
181 -75 292 -121 143 -59 212 -93 235 -115 25 -25 56 -88 130 -266 53 -129
192 -463 309 -744 188 -454 211 -516 211 -565 0 -49 -23 -112 -212 -565 -117
-280 -232 -559 -257 -620 -25 -60 -53 -128 -62 -150 -10 -22 -33 -77 -51 -122
-52 -129 -58 -133 -315 -238 -77 -32 -164 -68 -193 -81 -29 -13 -57 -24 -62
-24 -6 0 -18 -5 -28 -10 -19 -11 -450 -190 -458 -190 -2 0 -23 -9 -47 -20 -23
-10 -141 -60 -262 -111 -184 -76 -229 -91 -275 -91 -49 -1 -94 15 -385 136
-181 76 -348 146 -370 155 -22 10 -208 87 -413 172 -385 158 -415 175 -447
243 -12 27 -248 594 -310 746 -61 151 -137 333 -168 405 -106 248 -131 320
-130 370 1 38 20 96 82 245 45 107 85 204 90 215 11 24 45 106 186 450 59 143
115 279 126 302 10 24 19 45 19 48 0 3 9 24 19 48 11 23 34 78 52 122 37 92
62 133 94 157 18 14 264 122 300 132 6 2 21 8 35 13 911 379 1144 476 1170
483 33 10 86 5 135 -13z"/>
<path d="M2480 3602 c-6 -2 -10 -68 -10 -168 l0 -164 113 -1 c150 -1 175 -3
256 -28 117 -35 191 -119 227 -254 16 -63 19 -774 3 -847 -24 -111 -88 -199
-176 -243 -71 -36 -152 -50 -295 -48 l-128 1 0 -169 0 -169 153 3 c220 4 327
25 462 90 189 91 301 255 349 510 13 65 15 153 12 470 -1 215 -6 404 -10 420
-29 121 -42 160 -79 235 -101 207 -312 332 -597 356 -92 7 -264 11 -280 6z"/>
<path d="M1792 2885 l0 -175 185 2 185 3 -1 130 c0 72 0 149 -1 173 l0 42
-184 0 -183 0 -1 -175z"/>
<path d="M1797 2373 c-3 -5 -5 -83 -5 -175 l0 -168 184 0 184 0 1 65 c0 36 0
85 0 110 0 25 0 74 0 110 l-1 65 -179 0 c-99 0 -182 -3 -184 -7z"/>
</g>
</svg>
