<svg width="512" height="176" viewBox="0 0 512 176" fill="none" xmlns="http://www.w3.org/2000/svg">
<path d="M140.76 133.69V42.3055H202.213V56.8741H156.918V78.9919H198.24V93.5605H156.918V119.122H202.213V133.69H140.76Z" fill="white"/>
<path d="M218.72 112.235V63.7611C218.72 49.4574 225.871 42.3055 240.175 42.3055H279.113L286.927 48.3979V56.8741H240.705C236.82 56.8741 234.878 58.8166 234.878 62.7016V113.294C234.878 117.179 236.82 119.122 240.705 119.122H273.418V93.5605H254.082V78.9919H289.576V133.69H240.175C225.871 133.69 218.72 126.538 218.72 112.235Z" fill="white"/>
<path d="M309.416 133.69V42.3055H370.869V56.8741H325.574V78.9919H366.896V93.5605H325.574V119.122H370.869V133.69H309.416Z" fill="white"/>
<path d="M388.7 133.69V42.3055H406.315L446.975 107.599V42.3055H463V133.69H445.518L404.858 68.3966V133.69H388.7Z" fill="white"/>
<path d="M79.7144 133.384H86.7949C110.634 133.384 122.554 121.465 122.554 97.6253V77.7591C122.554 53.9197 110.634 42 86.7949 42H79.7144V56.5685H87.722C100.171 56.5685 106.396 62.7933 106.396 75.2427V100.142C106.396 112.591 100.171 118.816 87.722 118.816H79.7144V133.384Z" fill="white"/>
<rect x="50" y="65.7716" width="16.1307" height="15.2817" fill="white"/>
<rect x="50" y="95.4857" width="16.1307" height="15.2817" fill="white"/>
</svg>
