<svg width="512" height="512" viewBox="0 0 512 512" fill="none" xmlns="http://www.w3.org/2000/svg">
<g clip-path="url(#clip0_43_3)">
<path d="M240.906 355.84H257.087C311.567 355.84 338.807 328.6 338.807 274.12V228.72C338.807 174.24 311.567 147 257.087 147H240.906V180.293H259.205C287.656 180.293 301.881 194.519 301.881 222.969V279.87C301.881 308.321 287.656 322.546 259.205 322.546H240.906V355.84Z" fill="white"/>
<rect x="173" y="201.325" width="36.8632" height="34.923" fill="white"/>
<rect x="173" y="269.23" width="36.8632" height="34.923" fill="white"/>
<path d="M253.841 478.132C376.588 478.132 476.102 378.685 476.102 256H508C508 396.275 394.214 510 253.841 510C167.335 510 90.9407 466.801 45.0544 400.876L33.5701 446.247L6.76888 439.476L30.4591 345.883L124.139 369.551L117.362 396.328L72.9545 385.108C113.292 441.455 179.289 478.132 253.841 478.132Z" fill="white"/>
<path d="M35.898 256C35.898 133.315 135.412 33.8684 258.159 33.8683C332.711 33.8683 398.708 70.5452 439.046 126.892L394.638 115.672L387.861 142.449L481.541 166.117L505.231 72.5239L478.43 65.7526L466.946 111.124C421.059 45.1989 344.665 1.99999 258.159 1.99998C117.786 2 4 115.725 4.00002 256H35.898Z" fill="white"/>
</g>
<defs>
<clipPath id="clip0_43_3">
<rect width="512" height="512" fill="white"/>
</clipPath>
</defs>
</svg>
